#N canvas 827 239 734 565 12;
#X obj 168 71 * -1;
#X obj 168 97 + 1;
#X obj 279 73 vsl 17 75 0 1 0 0 empty empty empty 0 -9 0 10 #191919 #ffffff #ffffff 0 1;
#X msg 168 194 \$1 20;
#X obj 314 71 * -1;
#X obj 314 97 + 1;
#X obj 425 75 vsl 17 75 0 1 0 0 empty empty empty 0 -9 0 10 #191919 #ffffff #ffffff 0 1;
#X msg 314 194 \$1 20;
#X obj 314 42 r knob1 @hv_param;
#X obj 152 280 osc~ 110;
#X obj 279 280 osc~ 220;
#X obj 208 587 dac~;
#X obj 152 356 *~ 0.5;
#X obj 279 356 *~ 0.5;
#X obj 548 142 * -1;
#X obj 548 168 + 1;
#X obj 664 144 vsl 17 75 0 1 0 0 empty empty empty 0 -9 0 10 #191919 #ffffff #ffffff 0 1;
#X msg 548 330 \$1 20;
#X obj 548 113 r knob10 @hv_param;
#X obj 249 536 *~;
#X obj 548 356 line~;
#X obj 279 306 *~;
#X obj 152 315 *~;
#X obj 219 380 +~;
#X obj 208 536 *~;
#X obj 606 267 loadbang;
#X msg 606 293 1;
#X obj 168 220 line;
#X obj 314 220 line;
#X obj 190 249 sig~;
#X obj 290 249 sig~;
#X obj 20 397 adc~;
#X obj 142 454 +~;
#X obj 101 454 +~;
#X obj 168 42 r knob0 @hv_param;
#X connect 0 0 1 0;
#X connect 1 0 3 0;
#X connect 3 0 27 0;
#X connect 4 0 5 0;
#X connect 5 0 7 0;
#X connect 7 0 28 0;
#X connect 8 0 4 0;
#X connect 9 0 22 0;
#X connect 10 0 21 0;
#X connect 12 0 23 0;
#X connect 13 0 23 1;
#X connect 14 0 15 0;
#X connect 15 0 17 0;
#X connect 17 0 20 0;
#X connect 18 0 14 0;
#X connect 19 0 11 1;
#X connect 20 0 19 1;
#X connect 20 0 24 1;
#X connect 21 0 13 0;
#X connect 22 0 12 0;
#X connect 23 0 24 0;
#X connect 23 0 19 0;
#X connect 24 0 11 0;
#X connect 25 0 26 0;
#X connect 26 0 17 0;
#X connect 27 0 29 0;
#X connect 28 0 30 0;
#X connect 29 0 22 1;
#X connect 30 0 21 1;
#X connect 31 0 33 0;
#X connect 31 1 32 0;
#X connect 34 0 0 0;
