#N canvas 827 239 734 565 12;
#X obj 20 42 * -1;
#X obj 20 68 + 1;
#X obj 131 44 vsl 17 75 0 1 0 0 empty empty empty 0 -9 0 10 #191919 #ffffff #ffffff 0 1;
#X msg 20 94 \$1 20;
#X obj 20 120 line;
#X obj 166 42 * -1;
#X obj 166 68 + 1;
#X obj 277 44 vsl 17 75 0 1 0 0 empty empty empty 0 -9 0 10 #191919 #ffffff #ffffff 0 1;
#X msg 166 94 \$1 20;
#X obj 166 120 line;
#X obj 166 13 r knob1 @hv_param;
#X obj 20 13 r knob0 @hv_param;
#X obj 337 42 * -1;
#X obj 337 68 + 1;
#X obj 448 44 vsl 17 75 0 1 0 0 empty empty empty 0 -9 0 10 #191919 #ffffff #ffffff 0 1;
#X msg 337 94 \$1 20;
#X obj 337 120 line;
#X obj 483 42 * -1;
#X obj 483 68 + 1;
#X obj 594 44 vsl 17 75 0 1 0 0 empty empty empty 0 -9 0 10 #191919 #ffffff #ffffff 0 1;
#X msg 483 94 \$1 20;
#X obj 483 120 line;
#X obj 646 42 * -1;
#X obj 646 68 + 1;
#X obj 757 44 vsl 17 75 0 1 0 0 empty empty empty 0 -9 0 10 #191919 #ffffff #ffffff 0 1;
#X msg 646 94 \$1 20;
#X obj 646 120 line;
#X obj 792 42 * -1;
#X obj 792 68 + 1;
#X obj 903 44 vsl 17 75 0 1 0 0 empty empty empty 0 -9 0 10 #191919 #ffffff #ffffff 0 1;
#X msg 792 94 \$1 20;
#X obj 792 120 line;
#X obj 337 155 s wind1;
#X obj 483 155 s wind2;
#X obj 646 155 s water1;
#X obj 792 155 s water2;
#X obj 20 155 s earth1;
#X obj 166 155 s earth2;
#X obj 967 42 * -1;
#X obj 967 68 + 1;
#X obj 1078 44 vsl 17 75 0 1 0 0 empty empty empty 0 -9 0 10 #191919 #ffffff #ffffff 0 1;
#X msg 967 94 \$1 20;
#X obj 967 120 line;
#X obj 1113 42 * -1;
#X obj 1113 68 + 1;
#X obj 1224 44 vsl 17 75 0 1 0 0 empty empty empty 0 -9 0 10 #191919 #ffffff #ffffff 0 1;
#X msg 1113 94 \$1 20;
#X obj 1113 120 line;
#X obj 967 155 s fire1;
#X obj 1113 155 s fire2;
#X obj 337 13 r knob2 @hv_param;
#X obj 483 13 r knob3 @hv_param;
#X obj 646 13 r knob4 @hv_param;
#X obj 792 13 r knob5 @hv_param;
#X obj 967 13 r knob6 @hv_param;
#X obj 1113 13 r knob7 @hv_param;
#X obj 1278 42 * -1;
#X obj 1278 68 + 1;
#X obj 1389 44 vsl 17 75 0 1 0 0 empty empty empty 0 -9 0 10 #191919 #ffffff #ffffff 0 1;
#X msg 1278 94 \$1 20;
#X obj 1278 120 line;
#X obj 1424 42 * -1;
#X obj 1424 68 + 1;
#X obj 1535 44 vsl 17 75 0 1 0 0 empty empty empty 0 -9 0 10 #191919 #ffffff #ffffff 0 1;
#X msg 1424 94 \$1 20;
#X obj 1424 120 line;
#X obj 1278 13 r knob8 @hv_param;
#X obj 1424 13 r knob9 @hv_param;
#X obj 1278 155 s fx1;
#X obj 1424 155 s fx2;
#X obj 1618 42 * -1;
#X obj 1618 68 + 1;
#X obj 1729 44 vsl 17 75 0 1 0 0 empty empty empty 0 -9 0 10 #191919 #ffffff #ffffff 0 1;
#X msg 1618 94 \$1 20;
#X obj 1618 120 line;
#X obj 1618 13 r knob9 @hv_param;
#X obj 1618 155 s volout;
#X obj 32 197 r earth1;
#X obj 178 197 r earth2;
#X obj 349 197 r wind1;
#X obj 495 197 r wind2;
#X obj 658 197 r water1;
#X obj 804 197 r water2;
#X obj 979 197 r fire1;
#X obj 1125 197 r fire2;
#X obj 1290 197 r fx1;
#X obj 1436 197 r fx2;
#X obj -645 1112 cnv 15 432 103 empty empty empty 20 12 0 14 #696969 #e1e1e1 0;
#X obj -742 954 cnv 15 639 139 empty empty empty 20 12 0 14 #696969 #e1e1e1 0;
#X obj -679 826 cnv 15 499 113 empty empty empty 20 12 0 14 #696969 #e1e1e1 0;
#X text -730 994 Wind;
#X text -505 994 Water;
#X text -280 994 Fire;
#X text -535 1130 Earth;
#X text -730 1018 noise;
#X text -505 1018 droplets / stream;
#X text -280 1018 crackle / deep rumble;
#X text -535 1154 resonance / filtering / delay-reverb;
#X text -438 873 randomizer influenzing all pots;
#X text -645 873 octave / scale / ranges;
#X obj 1618 322 dac~;
#X obj 1617 209 catch~ l;
#X obj 1681 209 catch~ r;
#X obj 1682 243 *~ 0.45;
#X obj 1618 243 *~ 0.45;
#X obj 1618 279 *~;
#X obj 1669 279 *~;
#X obj 1754 209 sig~;
#X obj 1754 183 r volout;
#N canvas 733 172 450 300 wind 0;
#X obj 411 544 hv.pinknoise~;
#X obj 516 544 noise~;
#X obj 622 644 *~;
#X obj 727 644 *~;
#X obj 692 568 *~ -1;
#X obj 692 597 +~ 1;
#X obj 625 1003 hv.filter~ bandpass2 1000 2;
#X obj 818 1003 hv.filter~ bandpass2 1000 2;
#X obj 622 689 +~;
#X obj 646 597 line~;
#X obj 788 568 *;
#X obj 680 795 hv.tanh~;
#X obj 680 751 *~;
#X obj 788 751 *~;
#X obj 788 660 *~ -1;
#X obj 788 689 +~ 1;
#X obj 788 615 line~;
#X msg 788 588 \$1 20;
#X obj 788 873 hv.compressor~ 60 2;
#X obj 788 789 *~ 10000;
#X obj 1314 794 sel 0 5;
#X obj 1314 763 random 10;
#X msg 1314 826 1;
#X msg 1347 826 0;
#X msg 1171 583 0;
#X obj 1169 443 line;
#X obj 625 939 *~;
#X obj 680 905 *~ 0.5;
#X msg 1199 583 1;
#X obj 754 1117 *~;
#X obj 849 1117 *~;
#X obj 1045 969 sig~;
#X obj 256 533 +~ 1000;
#X obj 256 513 *~ 1000;
#X obj 232 486 vd~ a 1000;
#X obj 215 601 *~;
#X obj 216 577 vcf~ 1000 60;
#X obj 231 533 *~;
#X obj 215 622 *~ 2;
#X obj 215 777 throw~ l;
#X obj 279 777 throw~ r;
#X msg 174 508 60;
#X obj 81 600 *~;
#X obj 81 530 vcf~ 1000 60;
#X obj 98 578 *~;
#X obj 174 430 loadbang;
#X obj 81 777 throw~ l;
#X obj 145 777 throw~ r;
#X obj 120 488 *~ 400;
#X obj 120 508 +~ 600;
#X obj 97 461 vd~ a 100;
#X obj 216 405 r~ white;
#X obj 81 405 r~ white;
#X obj 81 622 *~ 1.2;
#X obj 97 552 +~ 0.12;
#X obj 81 668 *~;
#X obj 215 668 *~;
#X obj 304 607 r~ whistlevol;
#X obj 516 568 send~ white;
#X obj 411 568 send~ pink;
#X obj 622 538 r~ pink;
#X obj 411 607 send~ whistlevol;
#X obj 727 538 r~ white;
#X obj 1257 578 * -5000;
#X obj 754 1181 throw~ l;
#X obj 818 1181 throw~ r;
#N canvas 0 0 175 257 windspeed 0;
#X obj 13 41 +~ 1;
#X obj 12 151 +~;
#X obj 13 64 *~ 0.25;
#X obj 28 129 +~;
#X obj 13 173 clip~ 0 1;
#N canvas 0 0 184 221 squall 0;
#X obj 78 41 noise~;
#X obj 77 108 hip~ 0;
#X obj 78 64 lop~ 3;
#X obj 78 85 lop~ 3;
#X obj 17 112 *~;
#X obj 38 160 *~;
#X obj 16 42 max~ 0.4;
#X obj 16 64 -~ 0.4;
#X obj 16 87 *~ 8;
#X obj 78 129 *~ 20;
#X obj 16 14 inlet~;
#X obj 40 184 outlet~;
#X connect 0 0 2 0;
#X connect 1 0 9 0;
#X connect 2 0 3 0;
#X connect 3 0 1 0;
#X connect 4 0 5 0;
#X connect 5 0 11 0;
#X connect 6 0 7 0;
#X connect 7 0 8 0;
#X connect 8 0 4 0;
#X connect 8 0 4 1;
#X connect 9 0 5 1;
#X connect 10 0 6 0;
#X restore 83 98 pd squall;
#N canvas 0 0 190 244 gust 0;
#X obj 9 15 noise~;
#X obj 8 82 hip~ 0;
#X obj 8 157 *~;
#X obj 76 72 *~;
#X obj 75 49 +~ 0.5;
#X obj 76 96 -~ 0.125;
#X obj 9 59 lop~ 0.5;
#X obj 9 38 lop~ 0.5;
#X obj 9 103 *~ 50;
#X obj 75 9 inlet~;
#X obj 8 182 outlet~;
#X connect 0 0 7 0;
#X connect 1 0 8 0;
#X connect 2 0 10 0;
#X connect 3 0 5 0;
#X connect 4 0 3 0;
#X connect 4 0 3 1;
#X connect 5 0 2 1;
#X connect 6 0 1 0;
#X connect 7 0 6 0;
#X connect 8 0 2 0;
#X connect 9 0 4 0;
#X restore 27 98 pd gust;
#X obj 13 199 outlet~;
#X obj 13 19 osc~ 0.1;
#X obj 13 -9 sig~;
#X obj 13 -37 inlet;
#X connect 0 0 2 0;
#X connect 1 0 4 0;
#X connect 2 0 5 0;
#X connect 2 0 1 0;
#X connect 2 0 6 0;
#X connect 3 0 1 1;
#X connect 4 0 7 0;
#X connect 5 0 3 1;
#X connect 6 0 3 0;
#X connect 8 0 0 0;
#X connect 9 0 8 0;
#X connect 10 0 9 0;
#X restore 1032 494 pd windspeed;
#X obj 1032 516 delwrite~ a 3000;
#X obj 1045 1003 send~ panning;
#X obj 304 637 r~ panning;
#X obj 304 668 *~ -1;
#X obj 304 694 +~ 1;
#X obj 79 741 *~;
#X obj 145 741 *~;
#X obj 215 743 *~;
#X obj 279 743 *~;
#X obj 1045 737 hv.lfo sine;
#X obj 1032 669 send~ windvol;
#X obj 1032 644 sig~;
#X obj 680 879 r~ windvol;
#X obj 927 1070 *~ -1;
#X obj 927 1099 +~ 1;
#X obj 1045 767 * 0.9;
#X obj 1045 790 + 0.1;
#X obj 1169 795 / 100;
#X obj 1169 769 hv.drunk 100 10;
#X obj 1360 568 * 0.5;
#X obj 1169 739 metro 1000;
#X obj 1413 568 * 25;
#X obj 1045 817 +;
#X obj 1045 846 / 2;
#X obj 1170 839 spigot;
#X obj 1170 888 line;
#X obj 1170 865 pack f f;
#X obj 1257 681 int;
#X obj 1032 621 line;
#X obj 1257 605 + 5020;
#X obj 1169 617 change;
#X msg 1032 598 \$1 500;
#X msg 1169 419 \$1 200;
#X obj 1413 647 int;
#X obj 1032 546 loadbang;
#X msg 1035 568 1;
#X obj 1360 605 + 0.05;
#X obj 1169 494 moses 0.001;
#X obj 1179 988 * 700;
#X obj 1045 904 line;
#X msg 1045 872 \$1 100;
#X obj 1271 933 * 0.9;
#X obj 1271 956 + 0.1;
#X obj 1179 1026 +;
#X obj 1271 988 *;
#X obj 1032 424 * 0.3;
#X obj 1032 449 + 0.05;
#X text 646 327 wind;
#X obj 646 387 r wind1;
#X obj 1169 387 r wind2;
#X connect 0 0 59 0;
#X connect 1 0 58 0;
#X connect 2 0 8 0;
#X connect 3 0 8 1;
#X connect 4 0 5 0;
#X connect 5 0 2 1;
#X connect 5 0 61 0;
#X connect 6 0 29 0;
#X connect 7 0 30 0;
#X connect 8 0 12 0;
#X connect 8 0 13 0;
#X connect 9 0 4 0;
#X connect 9 0 3 1;
#X connect 10 0 17 0;
#X connect 11 0 26 0;
#X connect 12 0 11 0;
#X connect 13 0 19 0;
#X connect 14 0 15 0;
#X connect 15 0 13 1;
#X connect 16 0 14 0;
#X connect 16 0 12 1;
#X connect 17 0 16 0;
#X connect 18 0 11 0;
#X connect 19 0 18 0;
#X connect 20 0 22 0;
#X connect 20 1 22 0;
#X connect 20 2 23 0;
#X connect 21 0 20 0;
#X connect 22 0 91 1;
#X connect 23 0 91 1;
#X connect 24 0 97 0;
#X connect 25 0 104 0;
#X connect 25 0 105 0;
#X connect 25 0 112 0;
#X connect 26 0 6 0;
#X connect 26 0 7 0;
#X connect 27 0 26 1;
#X connect 28 0 97 0;
#X connect 29 0 64 0;
#X connect 30 0 65 0;
#X connect 31 0 80 0;
#X connect 31 0 29 1;
#X connect 31 0 68 0;
#X connect 32 0 36 1;
#X connect 33 0 32 0;
#X connect 34 0 33 0;
#X connect 34 0 37 0;
#X connect 34 0 37 1;
#X connect 35 0 38 0;
#X connect 36 0 35 0;
#X connect 37 0 35 1;
#X connect 38 0 56 0;
#X connect 41 0 43 2;
#X connect 41 0 36 2;
#X connect 42 0 53 0;
#X connect 43 0 42 0;
#X connect 44 0 42 1;
#X connect 45 0 41 0;
#X connect 48 0 49 0;
#X connect 49 0 43 1;
#X connect 50 0 48 0;
#X connect 50 0 54 0;
#X connect 51 0 36 0;
#X connect 52 0 43 0;
#X connect 53 0 55 0;
#X connect 54 0 44 0;
#X connect 54 0 44 1;
#X connect 55 0 72 0;
#X connect 55 0 73 0;
#X connect 56 0 74 0;
#X connect 56 0 75 0;
#X connect 57 0 56 1;
#X connect 57 0 55 1;
#X connect 60 0 2 0;
#X connect 62 0 3 0;
#X connect 63 0 96 0;
#X connect 66 0 67 0;
#X connect 69 0 70 0;
#X connect 69 0 74 1;
#X connect 69 0 72 1;
#X connect 70 0 71 0;
#X connect 71 0 75 1;
#X connect 71 0 73 1;
#X connect 72 0 46 0;
#X connect 73 0 47 0;
#X connect 74 0 39 0;
#X connect 75 0 40 0;
#X connect 76 0 82 0;
#X connect 78 0 77 0;
#X connect 79 0 27 0;
#X connect 80 0 81 0;
#X connect 81 0 30 1;
#X connect 82 0 83 0;
#X connect 83 0 89 0;
#X connect 84 0 91 0;
#X connect 85 0 84 0;
#X connect 86 0 103 0;
#X connect 87 0 85 0;
#X connect 87 0 21 0;
#X connect 88 0 100 0;
#X connect 88 0 111 1;
#X connect 89 0 90 0;
#X connect 90 0 107 0;
#X connect 91 0 93 0;
#X connect 92 0 89 1;
#X connect 92 0 108 0;
#X connect 93 0 92 0;
#X connect 94 0 93 1;
#X connect 94 0 87 1;
#X connect 95 0 78 0;
#X connect 96 0 94 0;
#X connect 97 0 87 0;
#X connect 97 0 98 0;
#X connect 98 0 95 0;
#X connect 99 0 25 0;
#X connect 100 0 85 2;
#X connect 101 0 102 0;
#X connect 102 0 98 0;
#X connect 103 0 76 0;
#X connect 104 0 24 0;
#X connect 104 1 28 0;
#X connect 104 1 88 0;
#X connect 104 1 86 0;
#X connect 104 1 63 0;
#X connect 105 0 110 0;
#X connect 106 0 31 0;
#X connect 107 0 106 0;
#X connect 108 0 109 0;
#X connect 109 0 111 0;
#X connect 110 0 6 1;
#X connect 110 0 7 1;
#X connect 111 0 110 1;
#X connect 112 0 113 0;
#X connect 113 0 66 0;
#X connect 115 0 9 0;
#X connect 115 0 10 0;
#X connect 116 0 99 0;
#X restore 574 290 pd wind;
#X connect 0 0 1 0;
#X connect 1 0 3 0;
#X connect 2 0 0 0;
#X connect 3 0 4 0;
#X connect 4 0 36 0;
#X connect 5 0 6 0;
#X connect 6 0 8 0;
#X connect 7 0 5 0;
#X connect 8 0 9 0;
#X connect 9 0 37 0;
#X connect 10 0 5 0;
#X connect 11 0 0 0;
#X connect 12 0 13 0;
#X connect 13 0 15 0;
#X connect 14 0 12 0;
#X connect 15 0 16 0;
#X connect 16 0 32 0;
#X connect 17 0 18 0;
#X connect 18 0 20 0;
#X connect 19 0 17 0;
#X connect 20 0 21 0;
#X connect 21 0 33 0;
#X connect 22 0 23 0;
#X connect 23 0 25 0;
#X connect 24 0 22 0;
#X connect 25 0 26 0;
#X connect 26 0 34 0;
#X connect 27 0 28 0;
#X connect 28 0 30 0;
#X connect 29 0 27 0;
#X connect 30 0 31 0;
#X connect 31 0 35 0;
#X connect 38 0 39 0;
#X connect 39 0 41 0;
#X connect 40 0 38 0;
#X connect 41 0 42 0;
#X connect 42 0 48 0;
#X connect 43 0 44 0;
#X connect 44 0 46 0;
#X connect 45 0 43 0;
#X connect 46 0 47 0;
#X connect 47 0 49 0;
#X connect 50 0 12 0;
#X connect 51 0 17 0;
#X connect 52 0 22 0;
#X connect 53 0 27 0;
#X connect 54 0 38 0;
#X connect 55 0 43 0;
#X connect 56 0 57 0;
#X connect 57 0 59 0;
#X connect 58 0 56 0;
#X connect 59 0 60 0;
#X connect 60 0 68 0;
#X connect 61 0 62 0;
#X connect 62 0 64 0;
#X connect 63 0 61 0;
#X connect 64 0 65 0;
#X connect 65 0 69 0;
#X connect 66 0 56 0;
#X connect 67 0 61 0;
#X connect 70 0 71 0;
#X connect 71 0 73 0;
#X connect 72 0 70 0;
#X connect 73 0 74 0;
#X connect 74 0 76 0;
#X connect 75 0 70 0;
#X connect 101 0 104 0;
#X connect 102 0 103 0;
#X connect 103 0 106 0;
#X connect 104 0 105 0;
#X connect 105 0 100 0;
#X connect 106 0 100 1;
#X connect 107 0 105 1;
#X connect 107 0 106 1;
#X connect 108 0 107 0;
