#N canvas 827 239 734 565 12;
#X obj 20 42 * -1;
#X obj 20 68 + 1;
#X obj 131 44 vsl 17 75 0 1 0 0 empty empty empty 0 -9 0 10 #191919 #ffffff #ffffff 0 1;
#X msg 20 94 \$1 20;
#X obj 20 120 line;
#X obj 166 42 * -1;
#X obj 166 68 + 1;
#X obj 277 44 vsl 17 75 0 1 0 0 empty empty empty 0 -9 0 10 #191919 #ffffff #ffffff 0 1;
#X msg 166 94 \$1 20;
#X obj 166 120 line;
#X obj 166 13 r knob1 @hv_param;
#X obj 20 13 r knob0 @hv_param;
#X obj 337 42 * -1;
#X obj 337 68 + 1;
#X obj 448 44 vsl 17 75 0 1 0 0 empty empty empty 0 -9 0 10 #191919 #ffffff #ffffff 0 1;
#X msg 337 94 \$1 20;
#X obj 337 120 line;
#X obj 483 42 * -1;
#X obj 483 68 + 1;
#X obj 594 44 vsl 17 75 0 1 0 0 empty empty empty 0 -9 0 10 #191919 #ffffff #ffffff 0 1;
#X msg 483 94 \$1 20;
#X obj 483 120 line;
#X obj 646 42 * -1;
#X obj 646 68 + 1;
#X obj 757 44 vsl 17 75 0 1 0 0 empty empty empty 0 -9 0 10 #191919 #ffffff #ffffff 0 1;
#X msg 646 94 \$1 20;
#X obj 646 120 line;
#X obj 792 42 * -1;
#X obj 792 68 + 1;
#X obj 903 44 vsl 17 75 0 1 0 0 empty empty empty 0 -9 0 10 #191919 #ffffff #ffffff 0 1;
#X msg 792 94 \$1 20;
#X obj 792 120 line;
#X obj 337 155 s wind1;
#X obj 483 155 s wind2;
#X obj 646 155 s water1;
#X obj 792 155 s water2;
#X obj 20 155 s earth1;
#X obj 166 155 s earth2;
#X obj 967 42 * -1;
#X obj 967 68 + 1;
#X obj 1078 44 vsl 17 75 0 1 0 0 empty empty empty 0 -9 0 10 #191919 #ffffff #ffffff 0 1;
#X msg 967 94 \$1 20;
#X obj 967 120 line;
#X obj 1113 42 * -1;
#X obj 1113 68 + 1;
#X obj 1224 44 vsl 17 75 0 1 0 0 empty empty empty 0 -9 0 10 #191919 #ffffff #ffffff 0 1;
#X msg 1113 94 \$1 20;
#X obj 1113 120 line;
#X obj 967 155 s fire1;
#X obj 1113 155 s fire2;
#X obj 337 13 r knob2 @hv_param;
#X obj 483 13 r knob3 @hv_param;
#X obj 646 13 r knob4 @hv_param;
#X obj 792 13 r knob5 @hv_param;
#X obj 967 13 r knob6 @hv_param;
#X obj 1113 13 r knob7 @hv_param;
#X obj 1278 42 * -1;
#X obj 1278 68 + 1;
#X obj 1389 44 vsl 17 75 0 1 0 0 empty empty empty 0 -9 0 10 #191919 #ffffff #ffffff 0 1;
#X msg 1278 94 \$1 20;
#X obj 1278 120 line;
#X obj 1424 42 * -1;
#X obj 1424 68 + 1;
#X obj 1535 44 vsl 17 75 0 1 0 0 empty empty empty 0 -9 0 10 #191919 #ffffff #ffffff 0 1;
#X msg 1424 94 \$1 20;
#X obj 1424 120 line;
#X obj 1278 13 r knob8 @hv_param;
#X obj 1424 13 r knob9 @hv_param;
#X obj 1278 155 s fx1;
#X obj 1424 155 s fx2;
#X obj 1618 42 * -1;
#X obj 1618 68 + 1;
#X obj 1729 44 vsl 17 75 0 1 0 0 empty empty empty 0 -9 0 10 #191919 #ffffff #ffffff 0 1;
#X msg 1618 94 \$1 20;
#X obj 1618 120 line;
#X obj 1618 13 r knob9 @hv_param;
#X obj 1618 155 s volout;
#X obj 32 197 r earth1;
#X obj 178 197 r earth2;
#X obj 349 197 r wind1;
#X obj 495 197 r wind2;
#X obj 658 197 r water1;
#X obj 804 197 r water2;
#X obj 979 197 r fire1;
#X obj 1125 197 r fire2;
#X obj 1290 197 r fx1;
#X obj 1436 197 r fx2;
#X obj 1630 197 r volout;
#X connect 0 0 1 0;
#X connect 1 0 3 0;
#X connect 2 0 0 0;
#X connect 3 0 4 0;
#X connect 4 0 36 0;
#X connect 5 0 6 0;
#X connect 6 0 8 0;
#X connect 7 0 5 0;
#X connect 8 0 9 0;
#X connect 9 0 37 0;
#X connect 10 0 5 0;
#X connect 11 0 0 0;
#X connect 12 0 13 0;
#X connect 13 0 15 0;
#X connect 14 0 12 0;
#X connect 15 0 16 0;
#X connect 16 0 32 0;
#X connect 17 0 18 0;
#X connect 18 0 20 0;
#X connect 19 0 17 0;
#X connect 20 0 21 0;
#X connect 21 0 33 0;
#X connect 22 0 23 0;
#X connect 23 0 25 0;
#X connect 24 0 22 0;
#X connect 25 0 26 0;
#X connect 26 0 34 0;
#X connect 27 0 28 0;
#X connect 28 0 30 0;
#X connect 29 0 27 0;
#X connect 30 0 31 0;
#X connect 31 0 35 0;
#X connect 38 0 39 0;
#X connect 39 0 41 0;
#X connect 40 0 38 0;
#X connect 41 0 42 0;
#X connect 42 0 48 0;
#X connect 43 0 44 0;
#X connect 44 0 46 0;
#X connect 45 0 43 0;
#X connect 46 0 47 0;
#X connect 47 0 49 0;
#X connect 50 0 12 0;
#X connect 51 0 17 0;
#X connect 52 0 22 0;
#X connect 53 0 27 0;
#X connect 54 0 38 0;
#X connect 55 0 43 0;
#X connect 56 0 57 0;
#X connect 57 0 59 0;
#X connect 58 0 56 0;
#X connect 59 0 60 0;
#X connect 60 0 68 0;
#X connect 61 0 62 0;
#X connect 62 0 64 0;
#X connect 63 0 61 0;
#X connect 64 0 65 0;
#X connect 65 0 69 0;
#X connect 66 0 56 0;
#X connect 67 0 61 0;
#X connect 70 0 71 0;
#X connect 71 0 73 0;
#X connect 72 0 70 0;
#X connect 73 0 74 0;
#X connect 74 0 76 0;
#X connect 75 0 70 0;
